<svg width="17" height="14" viewBox="0 0 17 14" version="1.1" xmlns="http://www.w3.org/2000/svg" xmlns:xlink="http://www.w3.org/1999/xlink">
<title>Vector</title>
<desc>Created using Figma</desc>
<g id="Canvas" transform="translate(12374 -8379)">
<g id="Vector">
<use xlink:href="#path0_fill" transform="translate(-12374 8379)" fill="#C2915F"/>
</g>
</g>
<defs>
<path id="path0_fill" d="M 12.1297 1C 12.7297 1 13.3297 1.2 13.8297 1.5C 15.1297 2.4 15.5297 4.3 14.6297 5.6L 8.02968 12.5L 1.52968 5.6C 0.629684 4.3 1.02968 2.4 2.32968 1.5C 2.82968 1.2 3.42968 1 3.92968 1C 4.92968 1 5.82968 1.5 6.32968 2.3L 7.12968 3.5L 8.02968 4.7L 8.82968 3.5L 9.62968 2.3C 10.2297 1.5 11.1297 1 12.1297 1ZM 12.1297 0C 10.8297 0 9.62968 0.6 8.82968 1.7L 8.02968 2.9L 7.22968 1.7C 6.42968 0.6 5.22968 0 3.92968 0C 3.22968 0 2.42968 0.2 1.72968 0.7C -0.0703157 1.9 -0.570316 4.4 0.729684 6.3L 8.02968 14L 15.3297 6.3C 16.5297 4.5 16.1297 2 14.3297 0.7C 13.6297 0.2 12.8297 0 12.1297 0Z"/>
</defs>
</svg>
