<svg width="16" height="16" viewBox="0 0 16 16" version="1.1" xmlns="http://www.w3.org/2000/svg" xmlns:xlink="http://www.w3.org/1999/xlink">
<title>Vector</title>
<desc>Created using Figma</desc>
<g id="Canvas" transform="translate(13590 -8227)">
<g id="Vector">
<use xlink:href="#path0_fill" transform="translate(-13590 8227)" fill="#E6E6E6"/>
</g>
</g>
<defs>
<path id="path0_fill" d="M 14.9 5L 11.9 5C 11.7 2.2 10 0 8 0C 6 0 4.3 2.2 4.1 5L 1.1 5C 1.1 5 0 12.1 0 14C 0 15.9 1.1 16 1.1 16C 1.1 16 4.7 16 8 16C 11.3 16 14.9 16 14.9 16C 14.9 16 16 15.9 16 14C 16 12.1 14.9 5 14.9 5ZM 8 1C 9.4 1 10.6 2.8 10.9 5L 5.1 5C 5.3 2.8 6.6 1 8 1ZM 14.8 15L 10 15L 5 15L 1.2 15C 1.2 14.9 1 14.6 1 14C 1 12.7 1.6 8.6 1.9 6L 14 6C 14.4 8.6 14.9 12.7 14.9 14C 15 14.6 14.8 14.9 14.8 15Z"/>
</defs>
</svg>
