<?xml version="1.0" encoding="UTF-8"?>
<svg width="16px" height="14px" viewBox="0 0 16 14" version="1.1" xmlns="http://www.w3.org/2000/svg" xmlns:xlink="http://www.w3.org/1999/xlink">
    <!-- Generator: Sketch 46.2 (44496) - http://www.bohemiancoding.com/sketch -->
    <title>ico-wishlist</title>
    <desc>Created with Sketch.</desc>
    <defs></defs>
    <g id="Page-1" stroke="none" stroke-width="1" fill="none" fill-rule="evenodd">
        <g id="ico-wishlist" fill-rule="nonzero" fill="#FFFFFF">
            <path d="M12.1297,1 C12.7297,1 13.3297,1.2 13.8297,1.5 C15.1297,2.4 15.5297,4.3 14.6297,5.6 L8.02968,12.5 L1.52968,5.6 C0.629684,4.3 1.02968,2.4 2.32968,1.5 C2.82968,1.2 3.42968,1 3.92968,1 C4.92968,1 5.82968,1.5 6.32968,2.3 L7.12968,3.5 L8.02968,4.7 L8.82968,3.5 L9.62968,2.3 C10.2297,1.5 11.1297,1 12.1297,1 Z M12.1297,0 C10.8297,0 9.62968,0.6 8.82968,1.7 L8.02968,2.9 L7.22968,1.7 C6.42968,0.6 5.22968,0 3.92968,0 C3.22968,0 2.42968,0.2 1.72968,0.7 C-0.0703157,1.9 -0.570316,4.4 0.729684,6.3 L8.02968,14 L15.3297,6.3 C16.5297,4.5 16.1297,2 14.3297,0.7 C13.6297,0.2 12.8297,0 12.1297,0 Z" id="path0_fill"></path>
        </g>
    </g>
</svg>