<svg xmlns="http://www.w3.org/2000/svg" width="26" height="26" viewBox="0 0 26 26">
    <g fill="none" fill-rule="evenodd" stroke="#C2915F" stroke-linecap="round" stroke-linejoin="round" stroke-width="1.3">
        <path d="M13 17.5H1.5v-16h23V10M22.5 18v6.5l-3-2.5-3 2.5V18"/>
        <path d="M21 15a1.5 1.5 0 1 1-3.001-.001A1.5 1.5 0 0 1 21 15z"/>
        <path d="M23.22 15a1.995 1.995 0 0 0 .178-2.25 1.999 1.999 0 0 0-2.037-.973A1.997 1.997 0 0 0 19.5 10.5c-.85 0-1.57.531-1.86 1.278a1.995 1.995 0 0 0-2.036.972A1.996 1.996 0 0 0 15.78 15a1.997 1.997 0 0 0-.176 2.25 1.996 1.996 0 0 0 2.037.973A1.996 1.996 0 0 0 19.5 19.5c.85 0 1.57-.531 1.862-1.278a1.995 1.995 0 0 0 2.036-.972A1.995 1.995 0 0 0 23.22 15z"/>
        <path d="M22.5 9V6.5a3 3 0 0 1-3-3h-13a3 3 0 0 1-3 3v6a3 3 0 0 1 3 3H13"/>
    </g>
</svg>
