<?xml version="1.0" encoding="UTF-8"?>
<svg width="194px" height="198px" viewBox="0 0 194 198" version="1.1" xmlns="http://www.w3.org/2000/svg" xmlns:xlink="http://www.w3.org/1999/xlink">
    <!-- Generator: Sketch 52 (66869) - http://www.bohemiancoding.com/sketch -->
    <title>Fill-1</title>
    <desc>Created with Sketch.</desc>
    <g id="Page-1" stroke="none" stroke-width="1" fill="none" fill-rule="evenodd">
        <g id="logo-barroco" fill="#FFFFFF" fill-rule="nonzero">
            <path d="M94.515742,135.566549 C92.151209,135.566549 90.398642,135.332179 89.252833,134.866043 C88.107024,134.402511 87.320582,133.543154 86.8883,132.287973 C86.458622,131.035395 86.245084,129.084916 86.245084,126.433931 L86.245084,98.61421 L95.481867,98.61421 C102.28641,98.61421 107.25245,100.119387 110.385196,103.127135 C113.520546,106.132279 115.085616,110.520207 115.085616,116.283105 C115.085616,129.139602 108.228991,135.566549 94.515742,135.566549 Z M86.245084,71.867384 C86.245084,69.25546 86.458622,67.284148 86.8883,65.96126 C87.320582,64.635767 88.107024,63.713912 89.252833,63.195693 C90.398642,62.674871 92.117355,62.41446 94.408973,62.41446 C99.815108,62.41446 103.734296,63.768598 106.16914,66.469061 C108.603984,69.174733 109.822708,73.28402 109.822708,78.796924 C109.822708,84.239516 108.622212,88.588382 106.223826,91.846125 C103.825439,95.106472 99.635424,96.734042 93.656385,96.734042 L86.245084,96.734042 L86.245084,71.867384 Z M103.645756,96.950183 L103.645756,96.734042 C109.447716,94.945018 113.682,92.366947 116.34861,88.999832 C119.01522,85.63532 120.348525,81.84113 120.348525,77.614657 C120.348525,74.17723 119.47094,71.16167 117.718373,68.565371 C115.963202,65.969072 113.348674,63.945677 109.877394,62.495187 C106.40351,61.044698 102.158808,60.320755 97.145894,60.320755 C95.859463,60.320755 93.487118,60.357212 90.031462,60.430127 C86.575807,60.500438 83.414416,60.536896 80.552497,60.536896 C74.643769,60.536896 70.167302,60.430127 67.1257,60.213986 L67.1257,62.41446 C69.774081,62.523833 71.698519,62.810285 72.899014,63.273817 C74.096906,63.739953 74.919805,64.599309 75.370316,65.854491 C75.818223,67.107068 76.039573,69.10963 76.039573,71.867384 L76.039573,126.433931 C76.039573,129.191684 75.818223,131.19685 75.370316,132.449428 C74.919805,133.704609 74.096906,134.563966 72.899014,135.027498 C71.698519,135.493634 69.774081,135.780086 67.1257,135.886854 L67.1257,138.089932 C70.203759,137.873791 74.750537,137.767023 80.766034,137.767023 C84.526371,137.767023 88.25025,137.821709 91.937672,137.928478 C95.625093,138.035246 98.203163,138.089932 99.671882,138.089932 C105.078017,138.089932 109.768021,137.186306 113.741895,135.376449 C117.718373,133.569195 120.770391,131.053624 122.900554,127.832338 C125.030717,124.608449 126.095799,120.921027 126.095799,116.76747 C126.095799,111.754556 124.377085,107.468188 120.939658,103.90316 C117.502232,100.34334 111.736729,98.023077 103.645756,96.950183 Z M153.688961,159.115527 C151.285367,162.013902 149.866126,164.808114 149.426031,167.492952 C148.985936,170.180395 149.110934,172.985023 149.808836,175.914648 C147.618778,173.846984 145.251641,172.333995 142.707424,171.373078 C140.160603,170.409557 137.038274,170.24029 133.337832,170.862672 C129.639994,171.485055 125.293732,173.240226 120.299047,176.125581 C114.611668,179.406761 110.390404,181.596819 107.635254,182.690546 C104.8775,183.784272 102.815044,184.107182 101.442678,183.654067 C100.070311,183.198347 98.760443,181.956186 97.507866,179.922375 L95.828214,180.893709 C98.033896,184.711336 100.377596,187.328468 102.861918,188.747708 C104.075434,189.440402 105.408739,189.864872 106.854021,190.041952 C106.356636,190.458609 105.848834,190.79454 105.33322,190.974223 C103.989498,191.442963 101.916626,191.120054 99.11981,190.000286 C96.320391,188.880518 91.976733,186.620149 86.091442,183.224388 C81.122798,180.354658 76.784348,178.604695 73.068282,177.9745 C69.357423,177.344305 66.227281,177.508364 63.683065,178.471885 C61.136244,179.432802 58.771711,180.945791 56.581653,183.013455 C57.276951,180.08383 57.404553,177.276598 56.964458,174.589155 C56.524363,171.906921 55.105122,169.117918 52.719756,166.22475 C50.331786,163.334187 46.636553,160.446227 41.641867,157.560872 C35.957092,154.279692 31.951969,151.719851 29.626498,149.878744 C27.298423,148.037637 25.991159,146.410068 25.696894,144.996035 C25.40263,143.582003 25.824496,141.824228 26.962492,139.725314 L25.280236,138.753981 C23.074554,142.574212 21.980827,145.915287 21.996452,148.774601 C22.00166,150.170404 22.301133,151.537563 22.871434,152.881284 C22.262072,152.657331 21.717812,152.386503 21.301154,152.02974 C20.223052,151.100072 19.470464,149.144385 19.038182,146.160073 C18.608503,143.175762 18.392362,138.285241 18.392362,131.48851 C18.392362,125.751653 17.736126,121.11894 16.428862,117.587765 C15.11639,114.05659 13.410697,111.429042 11.306576,109.70512 C9.19985,107.983802 6.705111,106.689559 3.82236,105.827598 C6.705111,104.965638 9.19985,103.671394 11.306576,101.947473 C13.410697,100.223551 15.11639,97.603815 16.428862,94.090869 C17.736126,90.575319 18.392362,85.932189 18.392362,80.164082 C18.392362,73.601722 18.608503,68.849219 19.038182,65.91699 C19.470464,62.982156 20.223052,61.034281 21.301154,60.073364 C22.379257,59.112447 24.11099,58.596833 26.49896,58.53173 L26.49896,56.591667 C22.0902,56.591667 18.647565,57.313006 16.178868,58.75308 C14.973164,59.458794 13.936728,60.404086 13.059142,61.568124 C12.947166,60.927513 12.910708,60.320755 13.012268,59.779099 C13.275284,58.380692 14.595568,56.750518 16.962705,54.885974 C19.332446,53.018827 23.459963,50.388674 29.345254,46.990309 C34.313898,44.123183 37.998716,41.237828 40.399706,38.339452 C42.803301,35.438472 44.225146,32.64426 44.66524,29.959422 C45.105335,27.274583 44.980338,24.467351 44.282436,21.54033 C46.472494,23.60539 48.839631,25.118379 51.383847,26.0819 C53.930668,27.042817 57.052998,27.212084 60.750836,26.589702 C64.451278,25.967319 68.797539,24.212148 73.794829,21.326793 C79.476999,18.045613 83.698264,15.855555 86.456017,14.761829 C89.213771,13.670706 91.276227,13.347796 92.648594,13.803516 C94.018357,14.256631 95.330829,15.498792 96.583406,17.532603 L98.263058,16.561269 C96.057376,12.741038 93.713675,10.123907 91.229353,8.704666 C90.018442,8.014576 88.682533,7.587502 87.237251,7.413027 C87.734636,6.996369 88.242438,6.660439 88.758052,6.480755 C90.099169,6.012015 92.172042,6.334925 94.968857,7.454693 C97.773485,8.57446 102.114538,10.832225 107.997226,14.23059 C112.968474,17.097716 117.309527,18.847679 121.020386,19.477874 C124.733848,20.110673 127.861386,19.94401 130.408207,18.983093 C132.955028,18.022176 135.322165,16.509187 137.507014,14.441523 C136.81432,17.371148 136.689323,20.17838 137.126814,22.863219 C137.566909,25.545453 138.983545,28.33706 141.371515,31.227624 C143.759485,34.118187 147.452115,37.008751 152.4468,39.891502 C158.131575,43.175286 162.136698,45.735128 164.464774,47.576234 C166.790245,49.417341 168.100113,51.04491 168.394377,52.456339 C168.688642,53.870371 168.266776,55.628146 167.131383,57.729664 L168.808431,58.698393 C171.014113,54.880766 172.110444,51.539692 172.094819,48.680377 C172.089611,47.284574 171.790138,45.914811 171.219838,44.57109 C171.8292,44.797648 172.373459,45.068475 172.787513,45.425238 C173.865615,46.354906 174.620807,48.310594 175.050486,51.294905 C175.482768,54.276612 175.698909,59.169737 175.698909,65.963864 C175.698909,71.700721 176.352541,76.333435 177.662409,79.864609 C178.972277,83.395784 180.680574,86.023332 182.784696,87.747254 C184.891422,89.471176 187.386161,90.762815 190.268912,91.62738 C187.386161,92.489341 184.891422,93.78098 182.784696,95.504901 C180.680574,97.228823 178.972277,99.848559 177.662409,103.364109 C176.352541,106.877055 175.698909,111.520186 175.698909,117.288292 C175.698909,123.853256 175.482768,128.603155 175.050486,131.537989 C174.620807,134.472822 173.865615,136.418093 172.787513,137.381614 C171.712015,138.342531 169.980281,138.855541 167.592311,138.923248 L167.592311,140.863311 C172.001071,140.863311 175.441102,140.141972 177.912404,138.699294 C179.118107,137.996184 180.154544,137.050892 181.032129,135.88425 C181.144106,136.527466 181.180564,137.134224 181.079003,137.675879 C180.813384,139.074286 179.495704,140.701856 177.128566,142.569004 C174.758825,144.433547 170.631309,147.066304 164.743413,150.462065 C159.777373,153.331795 156.092556,156.214547 153.688961,159.115527 Z M181.144106,149.722497 C183.555513,147.071512 184.758612,144.326779 184.7508,141.498714 C184.745592,139.173243 183.948734,136.483196 182.448766,133.472843 C182.745634,132.840044 183.024274,132.183808 183.258644,131.462469 C184.352371,128.082333 184.899234,123.355871 184.899234,117.288292 C184.899234,110.723328 185.115376,105.726038 185.545054,102.293819 C185.977336,98.864205 186.737737,96.41634 187.834068,94.958038 C188.927794,93.499736 190.518906,92.705482 192.607404,92.572672 L193.154267,92.572672 L193.154267,90.731566 L192.607404,90.731566 C190.518906,90.564902 188.927794,89.744607 187.834068,88.27068 C186.737737,86.794149 185.977336,84.341077 185.545054,80.908858 C185.115376,77.476639 184.899234,72.494975 184.899234,65.963864 C184.899234,59.667123 184.352371,54.807851 183.258644,51.393861 C182.162313,47.979871 180.391518,45.56586 177.935841,44.157036 C175.920259,43.000811 173.196359,42.344575 169.839659,42.13885 C169.438626,41.565946 169.011552,40.995645 168.50375,40.433157 C166.120988,37.795192 162.303361,34.956711 157.045661,31.922922 C151.36349,28.641741 147.142226,25.956903 144.387076,23.865801 C141.629322,21.777304 139.89238,19.894532 139.178853,18.217484 C138.460119,16.540437 138.566887,14.764433 139.496555,12.889473 L139.769987,12.415524 L138.176271,11.496273 L137.902839,11.970221 C136.715364,13.696747 135.207584,14.662872 133.382102,14.873805 C131.559224,15.082134 129.051465,14.517042 125.866637,13.175925 C122.681809,11.832203 118.257424,9.527565 112.59869,6.26201 C107.143077,3.111035 102.664006,1.157952 99.158872,0.397551 C95.658947,-0.362849 92.682447,-0.032127 90.231979,1.387113 C88.224209,2.553755 86.291958,4.587566 84.435227,7.392194 C83.739929,7.452088 83.031611,7.53542 82.28944,7.696875 C78.812951,8.436442 74.448461,10.327027 69.193364,13.360817 C63.505985,16.644601 59.071184,18.954448 55.883752,20.298169 C52.698924,21.639286 50.198977,22.201774 48.389119,21.985633 C46.576658,21.766888 45.092315,20.785138 43.933485,19.042987 L43.660054,18.569039 L42.066337,19.488291 L42.339769,19.962239 C43.240792,21.855428 43.324123,23.644452 42.594972,25.329312 C41.863217,27.014172 40.121066,28.902153 37.363313,30.99065 C34.608163,33.079147 30.402523,35.756173 24.746394,39.021729 C19.288176,42.172703 15.355969,45.073683 12.947166,47.729877 C10.535759,50.383466 9.332659,53.125595 9.340472,55.956264 C9.34568,58.281736 10.142538,60.969178 11.642506,63.982135 C11.348241,64.614934 11.066997,65.268566 10.832627,65.989905 C9.738901,69.372645 9.192037,74.099107 9.192037,80.164082 C9.192037,86.729047 8.975896,91.72894 8.546218,95.158555 C8.113935,98.590773 7.353535,101.036034 6.257204,102.494336 C5.163477,103.952638 3.572365,104.749496 1.483868,104.882306 L0.937005,104.882306 L0.937005,106.720809 L1.483868,106.720809 C3.572365,106.887472 5.163477,107.707767 6.257204,109.184298 C7.353535,110.660829 8.113935,113.111298 8.546218,116.543516 C8.975896,119.975735 9.192037,124.9574 9.192037,131.48851 C9.192037,137.787856 9.738901,142.644523 10.832627,146.061117 C11.926354,149.475107 13.699754,151.886514 16.152827,153.297942 C18.171013,154.454167 20.894913,155.107799 24.254217,155.316128 C24.65525,155.889033 25.07972,156.459333 25.587522,157.021821 C27.970283,159.659786 31.78791,162.495663 37.043007,165.529452 C42.725178,168.813237 46.946442,171.498075 49.704196,173.589177 C52.459345,175.67507 54.198892,177.560446 54.912418,179.237494 C55.631153,180.911938 55.524384,182.690546 54.594717,184.562901 L54.321285,185.039454 L55.915001,185.958705 L56.188433,185.484757 C57.373303,183.758231 58.883688,182.792106 60.706566,182.581173 C62.532048,182.37024 65.037203,182.937936 68.224635,184.279053 C71.412067,185.622775 75.831244,187.924809 81.489977,191.192969 C86.94559,194.341339 91.424662,196.297027 94.9324,197.057427 C98.434929,197.815224 101.411428,197.487106 103.856689,196.065261 C105.867063,194.898619 107.796709,192.867412 109.656044,190.062784 C110.353946,190.000286 111.05966,189.916954 111.801832,189.758103 C115.278321,189.018536 119.642811,187.127951 124.897907,184.094161 C130.582682,180.812981 135.020088,178.500531 138.20752,177.156809 C141.394952,175.813088 143.892295,175.2506 145.702152,175.469345 C147.514614,175.68809 148.998957,176.667236 150.157786,178.411991 L150.431218,178.885939 L152.024934,177.964084 L151.751503,177.492739 C150.85048,175.599551 150.764544,173.810526 151.4963,172.123062 C152.228055,170.440806 153.970205,168.552826 156.725355,166.464328 C159.483109,164.375831 163.688748,161.698805 169.344878,158.433249 C174.800491,155.284879 178.735303,152.383899 181.144106,149.722497 Z" id="Fill-1"></path>
        </g>
    </g>
</svg>