<svg width="211" height="30" viewBox="0 0 211 30" version="1.1" xmlns="http://www.w3.org/2000/svg" xmlns:xlink="http://www.w3.org/1999/xlink">
<title>Group</title>
<desc>Created using Figma</desc>
<g id="Canvas" transform="translate(17569 -8373)">
<g id="Group">
<g id="Fill 1">
<use xlink:href="#path0_fill" transform="translate(-17569 8380.19)" fill="#E6E6E6"/>
</g>
<g id="Fill 4">
<use xlink:href="#path1_fill" transform="translate(-17540.1 8380.03)" fill="#E6E6E6"/>
</g>
<g id="Fill 6">
<use xlink:href="#path2_fill" transform="translate(-17508.4 8380.19)" fill="#E6E6E6"/>
</g>
<g id="Fill 8">
<use xlink:href="#path3_fill" transform="translate(-17477 8380.19)" fill="#E6E6E6"/>
</g>
<g id="Fill 10">
<use xlink:href="#path4_fill" transform="translate(-17445.3 8379.74)" fill="#E6E6E6"/>
</g>
<g id="Fill 12">
<use xlink:href="#path5_fill" transform="translate(-17440.6 8373)" fill="#E6E6E6"/>
</g>
<g id="Fill 14">
<use xlink:href="#path6_fill" transform="translate(-17410.9 8379.74)" fill="#E6E6E6"/>
</g>
<g id="Fill 16">
<use xlink:href="#path7_fill" transform="translate(-17378.3 8379.74)" fill="#E6E6E6"/>
</g>
</g>
</g>
<defs>
<path id="path0_fill" fill-rule="evenodd" d="M 7.86646 21.6399C 7.18739 21.6399 6.68332 21.5733 6.35501 21.4395C 6.02594 21.3056 5.79934 21.0588 5.67594 20.6991C 5.55254 20.3394 5.49121 19.7792 5.49121 19.0179L 5.49121 11.0283L 8.14392 11.0283C 10.0974 11.0283 11.5243 11.4598 12.424 12.3236C 13.3237 13.1874 13.7739 14.4469 13.7739 16.1026C 13.7739 19.7942 11.8048 21.6399 7.86646 21.6399ZM 5.49121 3.34662C 5.49121 2.59575 5.55254 2.03036 5.67594 1.64969C 5.79934 1.26977 6.02594 1.00428 6.35501 0.85545C 6.68332 0.706623 7.17767 0.631836 7.83505 0.631836C 9.38838 0.631836 10.5139 1.01998 11.2132 1.79628C 11.9125 2.57257 12.2625 3.75272 12.2625 5.33597C 12.2625 6.89977 11.9177 8.14872 11.2289 9.08431C 10.5401 10.0199 9.33678 10.4881 7.61966 10.4881L 5.49121 10.4881L 5.49121 3.34662ZM 10.4889 10.5503L 10.4889 10.4889C 12.1545 9.9744 13.3705 9.234 14.1371 8.26775C 14.9029 7.3015 15.2858 6.2111 15.2858 4.99804C 15.2858 4.01085 15.0338 3.14481 14.5305 2.39843C 14.0264 1.6528 13.2755 1.07245 12.2779 0.655886C 11.2802 0.23932 10.0619 0.0306628 8.62224 0.0306628C 8.25279 0.0306628 7.57073 0.0411331 6.57905 0.0620736C 5.58662 0.0822662 4.6787 0.0927364 3.85679 0.0927364C 2.15986 0.0927364 0.874265 0.0620736 0 0L 0 0.632702C 0.761336 0.663364 1.31402 0.746378 1.65879 0.8795C 2.00281 1.01262 2.23914 1.26017 2.36777 1.6199C 2.4964 1.97962 2.56072 2.55549 2.56072 3.34749L 2.56072 19.0184C 2.56072 19.8104 2.4964 20.3863 2.36777 20.746C 2.23914 21.1058 2.00281 21.3526 1.65879 21.4857C 1.31402 21.6203 0.761336 21.7026 0 21.7332L 0 22.3652C 0.884735 22.3039 2.19052 22.2732 3.91811 22.2732C 4.99804 22.2732 6.0675 22.2881 7.12649 22.3188C 8.18548 22.3502 8.92588 22.3652 9.34768 22.3652C 10.9003 22.3652 12.2472 22.1057 13.3884 21.5866C 14.5305 21.0669 15.407 20.3452 16.0187 19.4193C 16.6305 18.4934 16.9364 17.4344 16.9364 16.2416C 16.9364 14.8019 16.4428 13.5709 15.4556 12.5478C 14.4684 11.5247 12.8126 10.8584 10.4889 10.5503Z"/>
<path id="path1_fill" fill-rule="evenodd" d="M 5.41406 13.4191L 9.03901 3.99512L 12.5712 13.4191L 5.41406 13.4191ZM 18.124 19.8665L 10.4269 0L 9.91756 0L 2.48369 19.1418C 1.87642 20.7356 1.04927 21.651 0 21.8873L 0 22.5192C 0.627467 22.4579 1.41348 22.4273 2.36029 22.4273C 3.58381 22.4273 4.79687 22.4579 6.0002 22.5192L 6.0002 21.8873C 5.0646 21.8664 4.37282 21.7123 3.92559 21.4244C 3.47836 21.1364 3.25475 20.6585 3.25475 19.9899C 3.25475 19.3318 3.46565 18.468 3.8867 17.3985L 5.18277 14.0518L 12.8021 14.0518L 14.7458 19.2338C 14.9926 19.8613 15.116 20.3549 15.116 20.7146C 15.116 21.1364 14.9433 21.4296 14.5993 21.5941C 14.2545 21.7587 13.6816 21.8566 12.8791 21.8873L 12.8791 22.5192C 13.7736 22.4579 15.1205 22.4273 16.9207 22.4273C 18.3184 22.4273 19.45 22.4579 20.3138 22.5192L 20.3138 21.8873C 19.3677 21.8462 18.6378 21.1723 18.124 19.8665Z"/>
<path id="path2_fill" fill-rule="evenodd" d="M 7.61966 11.12L 5.49121 11.12L 5.49121 3.34587C 5.49121 2.59575 5.55254 2.03036 5.67594 1.64969C 5.79934 1.26977 6.02594 1.00428 6.35501 0.85545C 6.68407 0.706623 7.17767 0.631836 7.8358 0.631836C 9.68679 0.631836 11.0232 1.07383 11.8459 1.95856C 12.6686 2.84255 13.0799 4.14834 13.0799 5.87593C 13.0799 6.94539 12.9258 7.86079 12.617 8.62138C 12.3088 9.38271 11.7532 9.98924 10.9514 10.4417C 10.149 10.8942 9.03838 11.12 7.61966 11.12ZM 18.1846 21.3705C 17.9587 21.5507 17.6708 21.6405 17.3215 21.6405C 17.0328 21.6405 16.7943 21.553 16.6043 21.378C 16.4136 21.203 16.2491 20.9338 16.1107 20.568C 15.9716 20.2038 15.8347 19.6968 15.7016 19.0491L 14.9149 15.8258C 14.7092 14.9208 14.4392 14.1954 14.1049 13.6502C 13.7714 13.1058 13.3211 12.6765 12.7557 12.3631C 12.1896 12.049 11.4343 11.8149 10.4882 11.6609L 10.1023 11.5995C 11.5831 11.3729 12.7834 10.9279 13.704 10.2646C 14.6247 9.60196 15.2776 8.85109 15.6627 8.01272C 16.0486 7.17511 16.2416 6.34497 16.2416 5.5223C 16.2416 4.47304 15.9537 3.53445 15.3778 2.7073C 14.8019 1.87941 13.9434 1.22651 12.8021 0.747874C 11.6601 0.269983 10.2668 0.0306628 8.6215 0.0306628C 8.25205 0.0306628 7.57073 0.0411331 6.5783 0.0620736C 5.58587 0.0822662 4.67795 0.0927364 3.85604 0.0927364C 2.16884 0.0927364 0.883987 0.0620736 0 0L 0 0.632702C 0.760588 0.663365 1.31327 0.745631 1.65804 0.8795C 2.00206 1.01262 2.23839 1.25942 2.36777 1.6199C 2.49566 1.97962 2.55997 2.55549 2.55997 3.34674L 2.55997 19.0184C 2.55997 19.8104 2.49566 20.3863 2.36777 20.746C 2.23839 21.1058 2.00206 21.3526 1.65804 21.4857C 1.31327 21.6203 0.760588 21.7018 0 21.7325L 0 22.3652C 0.883987 22.3039 2.23091 22.2732 4.04076 22.2732C 5.74816 22.2732 7.08461 22.3039 8.05161 22.3652L 8.05161 21.7325C 7.29028 21.7018 6.7376 21.6203 6.39283 21.4857C 6.04806 21.3526 5.81173 21.1058 5.68384 20.746C 5.55521 20.3863 5.49089 19.8104 5.49089 19.0184L 5.49089 11.7536L 8.4981 11.7536C 9.29009 11.7536 9.91008 11.9308 10.3573 12.2853C 10.8045 12.6406 11.1388 13.1132 11.3595 13.7048C 11.5808 14.2964 11.8149 15.1415 12.0617 16.2416L 12.7557 19.3886C 13.0429 20.6638 13.4647 21.553 14.0204 22.0571C 14.5753 22.5604 15.2851 22.8124 16.1489 22.8124C 16.9408 22.8124 17.578 22.6531 18.0612 22.3345C 18.5443 22.0159 19.0334 21.5014 19.527 20.7924L 19.0484 20.4372C 18.6991 20.8792 18.4112 21.1903 18.1846 21.3705Z"/>
<path id="path3_fill" fill-rule="evenodd" d="M 7.61868 11.12L 5.49023 11.12L 5.49023 3.34587C 5.49023 2.59575 5.55156 2.03036 5.67496 1.64969C 5.79836 1.26977 6.02496 1.00428 6.35403 0.85545C 6.68309 0.706623 7.17669 0.631836 7.83482 0.631836C 9.68581 0.631836 11.0223 1.07383 11.8449 1.95856C 12.6676 2.84255 13.0789 4.14834 13.0789 5.87593C 13.0789 6.94539 12.9249 7.86079 12.616 8.62138C 12.3079 9.38271 11.7522 9.98924 10.9505 10.4417C 10.148 10.8942 9.0374 11.12 7.61868 11.12ZM 18.1846 21.3705C 17.9587 21.5507 17.6708 21.6405 17.3215 21.6405C 17.0328 21.6405 16.7943 21.553 16.6043 21.378C 16.4136 21.203 16.2491 20.9338 16.1107 20.568C 15.9716 20.2038 15.8347 19.6968 15.7016 19.0491L 14.9149 15.8258C 14.7092 14.9208 14.4392 14.1954 14.1049 13.6502C 13.7714 13.1058 13.3211 12.6765 12.7557 12.3631C 12.1896 12.049 11.4343 11.8149 10.4882 11.6609L 10.1023 11.5995C 11.5831 11.3729 12.7834 10.9279 13.704 10.2646C 14.6247 9.60196 15.2776 8.85109 15.6627 8.01272C 16.0486 7.17511 16.2416 6.34497 16.2416 5.5223C 16.2416 4.47304 15.9537 3.53445 15.3778 2.7073C 14.8019 1.87941 13.9434 1.22651 12.8021 0.747874C 11.6601 0.269983 10.2668 0.0306628 8.6215 0.0306628C 8.25205 0.0306628 7.57073 0.0411331 6.5783 0.0620736C 5.58587 0.0822662 4.67795 0.0927364 3.85604 0.0927364C 2.16884 0.0927364 0.883987 0.0620736 0 0L 0 0.632702C 0.760588 0.663365 1.31327 0.745631 1.65804 0.8795C 2.00206 1.01262 2.23839 1.25942 2.36777 1.6199C 2.49566 1.97962 2.55997 2.55549 2.55997 3.34674L 2.55997 19.0184C 2.55997 19.8104 2.49566 20.3863 2.36777 20.746C 2.23839 21.1058 2.00206 21.3526 1.65804 21.4857C 1.31327 21.6203 0.760588 21.7018 0 21.7325L 0 22.3652C 0.883987 22.3039 2.23091 22.2732 4.04076 22.2732C 5.74816 22.2732 7.08461 22.3039 8.05161 22.3652L 8.05161 21.7325C 7.29028 21.7018 6.7376 21.6203 6.39283 21.4857C 6.04806 21.3526 5.81173 21.1058 5.68384 20.746C 5.55521 20.3863 5.49089 19.8104 5.49089 19.0184L 5.49089 11.7536L 8.4981 11.7536C 9.29009 11.7536 9.91008 11.9308 10.3573 12.2853C 10.8045 12.6406 11.1388 13.1132 11.3595 13.7048C 11.5808 14.2964 11.8149 15.1415 12.0617 16.2416L 12.7557 19.3886C 13.0429 20.6638 13.4647 21.553 14.0204 22.0571C 14.5753 22.5604 15.2851 22.8124 16.1489 22.8124C 16.9408 22.8124 17.578 22.6531 18.0612 22.3345C 18.5443 22.0159 19.0334 21.5014 19.527 20.7924L 19.0484 20.4372C 18.6991 20.8792 18.4112 21.1903 18.1846 21.3705Z"/>
<path id="path4_fill" fill-rule="evenodd" d="M 16.057 17.3444C 15.5014 19.0256 14.7124 20.3366 13.6893 21.2775C 12.6662 22.2183 11.4808 22.6887 10.1339 22.6887C 8.83856 22.6887 7.65841 22.2362 6.59418 21.3313C 5.52996 20.4271 4.68935 19.1408 4.07235 17.4753C 3.45536 15.8097 3.14648 13.8817 3.14648 11.6912C 3.14648 9.52162 3.42469 7.59584 3.97962 5.91462C 4.53529 4.2334 5.32654 2.92238 6.35487 1.98155C 7.38319 1.04073 8.57082 0.570312 9.91849 0.570312C 11.2138 0.570312 12.391 1.02278 13.4499 1.9277C 14.5089 2.83263 15.3473 4.11748 15.9643 5.78374C 16.5813 7.45001 16.8902 9.37803 16.8902 11.5678C 16.8902 13.7374 16.612 15.6632 16.057 17.3444ZM 15.309 1.35739C 13.802 0.452464 12.0468 0 10.0417 0C 8.09798 0 6.36516 0.493597 4.84323 1.48079C 3.32131 2.46799 2.13369 3.85604 1.28036 5.64495C 0.427036 7.43462 0 9.49127 0 11.8149C 0 14.1902 0.413574 16.2393 1.24147 17.9617C 2.06937 19.6841 3.23605 20.9973 4.74302 21.9022C 6.24924 22.8072 8.00525 23.2596 10.0103 23.2596C 11.954 23.2596 13.6868 22.766 15.2088 21.7788C 16.7299 20.7917 17.9176 19.4036 18.7716 17.6147C 19.625 15.825 20.0513 13.7691 20.0513 11.4447C 20.0513 9.06947 19.6377 7.0203 18.8098 5.29869C 17.9819 3.57559 16.8152 2.26232 15.309 1.35739Z"/>
<path id="path5_fill" fill-rule="evenodd" d="M 0.833132 2.35954C 1.25419 2.61681 1.92054 2.92045 2.8307 3.26971C 3.74087 3.61971 4.50146 3.92484 5.11322 4.18735C 5.72498 4.4491 6.41676 4.77593 7.18782 5.16632L 7.40396 4.7505C 6.59176 4.1335 5.90522 3.57783 5.34506 3.08423C 4.78415 2.59138 4.20829 2.07161 3.61747 1.52641C 3.0259 0.981959 2.51959 0.575863 2.09779 0.308124C 1.77919 0.102459 1.45985 0 1.142 0C 0.729925 0 0.406096 0.175003 0.169767 0.52426C 0.0568385 0.719455 0 0.91465 0 1.11059C 0 1.57278 0.277461 1.98935 0.833132 2.35954Z"/>
<path id="path6_fill" fill-rule="evenodd" d="M 6.38535 1.92802C 7.41368 1.02384 8.61177 0.571376 9.97964 0.571376C 11.1104 0.571376 12.1642 0.776294 13.1416 1.18762C 14.1184 1.5997 14.9253 2.21595 15.5625 3.03861C 15.8609 3.42975 16.0972 3.80743 16.2722 4.17239C 16.4473 4.53735 16.5991 4.98234 16.7277 5.5066C 16.8556 6.03086 16.9969 6.76602 17.1518 7.71208L 17.8764 7.71208C 17.8764 4.23671 17.9176 1.81509 17.9998 0.447977L 17.2752 0.447977C 17.1719 1.70216 16.905 2.32963 16.4727 2.32963C 16.288 2.32963 16.0823 2.23689 15.8564 2.05142C 15.0128 1.40376 14.146 0.899693 13.2568 0.539965C 12.3676 0.180238 11.2951 0 10.041 0C 8.09798 0 6.36516 0.493597 4.84323 1.48079C 3.32131 2.46799 2.13294 3.85604 1.27961 5.6457C 0.426288 7.43462 0 9.49127 0 11.8149C 0 14.1902 0.413574 16.2393 1.24147 17.9617C 2.06937 19.6841 3.23605 20.9981 4.74302 21.9022C 6.24924 22.8072 8.00525 23.2596 10.0103 23.2596C 10.8636 23.2596 11.6294 23.1699 12.3085 22.9904C 12.9868 22.8102 13.5911 22.5791 14.1206 22.2956C 14.6501 22.0129 15.229 21.651 15.8564 21.2082C 16.1234 21.034 16.3396 20.9465 16.5041 20.9465C 16.7299 20.9465 16.9027 21.0923 17.0209 21.3862C 17.1383 21.6786 17.2235 22.1543 17.2752 22.8124L 17.9998 22.8124C 17.9176 21.3832 17.8764 18.8539 17.8764 15.2237L 17.1518 15.2237C 16.9767 16.6327 16.7965 17.6738 16.6118 18.3476C 16.4263 19.0207 16.1182 19.6452 15.6867 20.221C 15.131 21.0235 14.3547 21.6248 13.357 22.0264C 12.3594 22.4273 11.337 22.6277 10.2878 22.6277C 8.9199 22.6277 7.69637 22.2006 6.61719 21.3473C 5.53726 20.494 4.68842 19.2443 4.07218 17.599C 3.45518 15.9544 3.14631 13.9852 3.14631 11.6915C 3.14631 9.43967 3.429 7.47575 3.9944 5.79977C 4.56054 4.12378 5.35702 2.83295 6.38535 1.92802Z"/>
<path id="path7_fill" fill-rule="evenodd" d="M 16.057 17.3444C 15.5014 19.0256 14.7124 20.3366 13.6893 21.2775C 12.6662 22.2183 11.4808 22.6887 10.1339 22.6887C 8.83856 22.6887 7.65841 22.2362 6.59418 21.3313C 5.52996 20.4271 4.68935 19.1408 4.07235 17.4753C 3.45536 15.8097 3.14648 13.8817 3.14648 11.6912C 3.14648 9.52162 3.42469 7.59584 3.97962 5.91462C 4.53529 4.2334 5.32654 2.92238 6.35487 1.98155C 7.38319 1.04073 8.57082 0.570312 9.91849 0.570312C 11.2138 0.570312 12.391 1.02278 13.4499 1.9277C 14.5089 2.83263 15.3473 4.11748 15.9643 5.78374C 16.5813 7.45001 16.8902 9.37803 16.8902 11.5678C 16.8902 13.7374 16.612 15.6632 16.057 17.3444ZM 18.8098 5.29869C 17.9819 3.57559 16.8152 2.26232 15.309 1.35739C 13.802 0.452464 12.0468 0 10.0417 0C 8.09798 0 6.36516 0.493597 4.84323 1.48079C 3.32131 2.46799 2.13369 3.85604 1.28036 5.64495C 0.427036 7.43462 0 9.49127 0 11.8149C 0 14.1902 0.413574 16.2393 1.24147 17.9617C 2.06937 19.6841 3.23605 20.9973 4.74302 21.9022C 6.24924 22.8072 8.00525 23.2596 10.0103 23.2596C 11.954 23.2596 13.6868 22.766 15.2088 21.7788C 16.7299 20.7917 17.9176 19.4036 18.7716 17.6147C 19.625 15.825 20.0513 13.7691 20.0513 11.4447C 20.0513 9.06947 19.6377 7.0203 18.8098 5.29869Z"/>
</defs>
</svg>
